<?xml version="1.0" encoding="UTF-8"?>
<svg xmlns="http://www.w3.org/2000/svg" viewBox="0 0 453.5 451.22">
  <defs>
    <style>
      .cls-1 {
        fill: #fff;
      }

      .cls-2 {
        fill: #666;
      }

      .cls-3 {
        fill: #f0f0f0;
        stroke: #b3b3b3;
        stroke-miterlimit: 10;
      }

      .cls-4 {
        fill: #999;
      }

      .cls-5 {
        fill: #b3b3b3;
      }
    </style>
  </defs>
  <g id="Layer_1" data-name="Layer 1">
    <path class="cls-4" d="M453.5,438.22v-14.91c-7.18,0-13-5.82-13-13s5.82-13,13-13v-14.91c-7.18,0-13-5.82-13-13s5.82-13,13-13v-14.91c-7.18,0-13-5.82-13-13s5.82-13,13-13v-14.91c-7.18,0-13-5.82-13-13s5.82-13,13-13v-14.91c-7.18,0-13-5.82-13-13s5.82-13,13-13v-14.91c-7.18,0-13-5.82-13-13s5.82-13,13-13v-14.91c-7.18,0-13-5.82-13-13s5.82-13,13-13v-14.91c-7.18,0-13-5.82-13-13s5.82-13,13-13v-14.91c-7.18,0-13-5.82-13-13s5.82-13,13-13v-14.91c-7.18,0-13-5.82-13-13s5.82-13,13-13v-14.91c-3.42,0-6.77-1.39-9.19-3.81s-3.81-5.77-3.81-9.19h-14.91c0,7.18-5.82,13-13,13s-13-5.82-13-13h-14.91c0,7.18-5.82,13-13,13s-13-5.82-13-13h-14.91c0,7.18-5.82,13-13,13s-13-5.82-13-13h-14.91c0,7.18-5.82,13-13,13s-13-5.82-13-13h-14.91c0,7.18-5.82,13-13,13s-13-5.82-13-13h-14.91c0,7.18-5.82,13-13,13s-13-5.82-13-13h-14.91c0,7.18-5.82,13-13,13s-13-5.82-13-13h-14.91c0,7.18-5.82,13-13,13s-13-5.82-13-13h-14.91c0,7.18-5.82,13-13,13s-13-5.82-13-13h-14.91c0,7.18-5.82,13-13,13s-13-5.82-13-13h-14.91c0,3.42-1.39,6.77-3.81,9.19s-5.77,3.81-9.19,3.81v14.91c7.18,0,13,5.82,13,13s-5.82,13-13,13v14.91c7.18,0,13,5.82,13,13s-5.82,13-13,13v14.91c7.18,0,13,5.82,13,13s-5.82,13-13,13v14.91c7.18,0,13,5.82,13,13s-5.82,13-13,13v14.91c7.18,0,13,5.82,13,13s-5.82,13-13,13v14.91c7.18,0,13,5.82,13,13s-5.82,13-13,13v14.91c7.18,0,13,5.82,13,13s-5.82,13-13,13v14.91c7.18,0,13,5.82,13,13s-5.82,13-13,13v14.91c7.18,0,13,5.82,13,13s-5.82,13-13,13v14.91c7.18,0,13,5.82,13,13s-5.82,13-13,13v14.91c3.42,0,6.77,1.39,9.19,3.81,2.42,2.42,3.81,5.77,3.81,9.19h14.91c0-7.18,5.82-13,13-13s13,5.82,13,13h14.91c0-7.18,5.82-13,13-13s13,5.82,13,13h14.91c0-7.18,5.82-13,13-13s13,5.82,13,13h14.91c0-7.18,5.82-13,13-13s13,5.82,13,13h14.91c0-7.18,5.82-13,13-13s13,5.82,13,13h14.91c0-7.18,5.82-13,13-13s13,5.82,13,13h14.91c0-7.18,5.82-13,13-13s13,5.82,13,13h14.91c0-7.18,5.82-13,13-13s13,5.82,13,13h14.91c0-7.18,5.82-13,13-13s13,5.82,13,13h14.91c0-7.18,5.82-13,13-13s13,5.82,13,13h14.91c0-3.42,1.39-6.77,3.81-9.19,2.42-2.42,5.77-3.81,9.19-3.81Z"/>
    <path class="cls-3" d="M450.5,437.5v-14.91c-7.18,0-13-5.82-13-13s5.82-13,13-13v-14.91c-7.18,0-13-5.82-13-13s5.82-13,13-13v-14.91c-7.18,0-13-5.82-13-13s5.82-13,13-13v-14.91c-7.18,0-13-5.82-13-13s5.82-13,13-13v-14.91c-7.18,0-13-5.82-13-13s5.82-13,13-13v-14.91c-7.18,0-13-5.82-13-13s5.82-13,13-13v-14.91c-7.18,0-13-5.82-13-13s5.82-13,13-13v-14.91c-7.18,0-13-5.82-13-13s5.82-13,13-13v-14.91c-7.18,0-13-5.82-13-13s5.82-13,13-13v-14.91c-7.18,0-13-5.82-13-13s5.82-13,13-13v-14.91c-3.42,0-6.77-1.39-9.19-3.81s-3.81-5.77-3.81-9.19h-14.91c0,7.18-5.82,13-13,13s-13-5.82-13-13h-14.91c0,7.18-5.82,13-13,13s-13-5.82-13-13h-14.91c0,7.18-5.82,13-13,13s-13-5.82-13-13h-14.91c0,7.18-5.82,13-13,13s-13-5.82-13-13h-14.91c0,7.18-5.82,13-13,13s-13-5.82-13-13h-14.91c0,7.18-5.82,13-13,13s-13-5.82-13-13h-14.91c0,7.18-5.82,13-13,13s-13-5.82-13-13h-14.91c0,7.18-5.82,13-13,13s-13-5.82-13-13h-14.91c0,7.18-5.82,13-13,13s-13-5.82-13-13h-14.91c0,7.18-5.82,13-13,13S28.41,7.68,28.41.5h-14.91c0,3.42-1.39,6.77-3.81,9.19S3.92,13.5.5,13.5v14.91c7.18,0,13,5.82,13,13s-5.82,13-13,13v14.91c7.18,0,13,5.82,13,13s-5.82,13-13,13v14.91c7.18,0,13,5.82,13,13s-5.82,13-13,13v14.91c7.18,0,13,5.82,13,13s-5.82,13-13,13v14.91c7.18,0,13,5.82,13,13s-5.82,13-13,13v14.91c7.18,0,13,5.82,13,13s-5.82,13-13,13v14.91c7.18,0,13,5.82,13,13s-5.82,13-13,13v14.91c7.18,0,13,5.82,13,13s-5.82,13-13,13v14.91c7.18,0,13,5.82,13,13s-5.82,13-13,13v14.91c7.18,0,13,5.82,13,13s-5.82,13-13,13v14.91c3.42,0,6.77,1.39,9.19,3.81,2.42,2.42,3.81,5.77,3.81,9.19h14.91c0-7.18,5.82-13,13-13s13,5.82,13,13h14.91c0-7.18,5.82-13,13-13s13,5.82,13,13h14.91c0-7.18,5.82-13,13-13s13,5.82,13,13h14.91c0-7.18,5.82-13,13-13s13,5.82,13,13h14.91c0-7.18,5.82-13,13-13s13,5.82,13,13h14.91c0-7.18,5.82-13,13-13s13,5.82,13,13h14.91c0-7.18,5.82-13,13-13s13,5.82,13,13h14.91c0-7.18,5.82-13,13-13s13,5.82,13,13h14.91c0-7.18,5.82-13,13-13s13,5.82,13,13h14.91c0-7.18,5.82-13,13-13s13,5.82,13,13h14.91c0-3.42,1.39-6.77,3.81-9.19,2.42-2.42,5.77-3.81,9.19-3.81Z"/>
  </g>
  <g id="Layer_3" data-name="Layer 3">
    <g>
      <path class="cls-1" d="M321.61,294.67v-19.35h-192.16v19.35h-25.07v-19.35h-4.84c-21.28,0-38.6-15.4-38.6-34.34V70.66c0-18.93,17.32-34.34,38.6-34.34h260.67c21.28,0,38.6,15.4,38.6,34.34v170.32c0,18.93-17.32,34.34-38.6,34.34h-13.53v19.35h-25.07ZM99.55,58.55c-7.46,0-13.53,5.43-13.53,12.11v170.32c0,6.68,6.07,12.11,13.53,12.11h260.67c7.46,0,13.53-5.43,13.53-12.11V70.66c0-6.68-6.07-12.11-13.53-12.11H99.55Z"/>
      <path class="cls-5" d="M360.21,36.83c21.01,0,38.1,15.18,38.1,33.84v170.32c0,18.66-17.09,33.84-38.1,33.84h-14.03v19.35h-24.07v-19.35h-193.16v19.35h-24.07v-19.35h-5.34c-21.01,0-38.1-15.18-38.1-33.84V70.66c0-18.66,17.09-33.84,38.1-33.84h260.67M99.55,253.59h260.67c7.74,0,14.03-5.66,14.03-12.61V70.66c0-6.95-6.3-12.61-14.03-12.61H99.55c-7.74,0-14.03,5.66-14.03,12.61v170.32c0,6.95,6.3,12.61,14.03,12.61M360.21,35.83H99.55c-21.56,0-39.1,15.63-39.1,34.84v170.32c0,19.21,17.54,34.84,39.1,34.84h4.34v19.35h26.07v-19.35h191.16v19.35h26.07v-19.35h13.03c21.56,0,39.1-15.63,39.1-34.84V70.66c0-19.21-17.54-34.84-39.1-34.84h0ZM99.55,252.59c-7.19,0-13.03-5.21-13.03-11.61V70.66c0-6.4,5.85-11.61,13.03-11.61h260.67c7.19,0,13.03,5.21,13.03,11.61v170.32c0,6.4-5.85,11.61-13.03,11.61H99.55Z"/>
    </g>
    <g>
      <path class="cls-1" d="M195.12,170.81c-9.31,0-16.88-6.72-16.88-14.98,0-3.61,1.49-7.11,4.2-9.86l.14-.15v-20.46h25.07v20.46l.14.15c2.71,2.74,4.2,6.24,4.2,9.86,0,8.26-7.57,14.98-16.88,14.98Z"/>
      <path class="cls-5" d="M207.16,125.86v20.17l.29.29c2.62,2.65,4.06,6.02,4.06,9.51,0,7.99-7.35,14.48-16.38,14.48s-16.38-6.5-16.38-14.48c0-3.48,1.44-6.86,4.06-9.5l.29-.29v-20.17h24.07M208.16,124.86h-26.07v20.76c-2.7,2.73-4.34,6.3-4.34,10.21,0,8.54,7.8,15.48,17.38,15.48s17.38-6.95,17.38-15.48c0-3.91-1.65-7.48-4.34-10.21v-20.76h0Z"/>
    </g>
    <g>
      <path class="cls-1" d="M317.27,194.03v-59.17l-.14-.15c-2.71-2.74-4.2-6.24-4.2-9.86,0-8.26,7.57-14.98,16.88-14.98s16.88,6.72,16.88,14.98c0,3.61-1.49,7.11-4.2,9.86l-.14.15v59.17h-25.07Z"/>
      <path class="cls-5" d="M329.8,110.37c9.03,0,16.38,6.5,16.38,14.48,0,3.48-1.44,6.86-4.06,9.5l-.29.29v58.88h-24.07v-58.88l-.29-.29c-2.62-2.65-4.06-6.02-4.06-9.51,0-7.99,7.35-14.48,16.38-14.48M329.8,109.37c-9.58,0-17.38,6.95-17.38,15.48,0,3.91,1.65,7.48,4.34,10.21v59.47h26.07v-59.47c2.7-2.73,4.34-6.3,4.34-10.21,0-8.54-7.8-15.48-17.38-15.48h0Z"/>
    </g>
    <g>
      <path class="cls-1" d="M195.12,228.87c-45.24,0-82.04-32.77-82.04-73.05s36.81-73.05,82.04-73.05,82.05,32.77,82.05,73.05-36.81,73.05-82.05,73.05ZM195.12,105c-31.42,0-56.98,22.8-56.98,50.82s25.56,50.82,56.98,50.82,56.98-22.8,56.98-50.82-25.56-50.82-56.98-50.82Z"/>
      <path class="cls-5" d="M195.12,83.28c44.96,0,81.55,32.54,81.55,72.55s-36.58,72.55-81.55,72.55-81.55-32.54-81.55-72.55,36.58-72.55,81.55-72.55M195.12,207.14c31.69,0,57.48-23.02,57.48-51.32s-25.78-51.32-57.48-51.32-57.48,23.02-57.48,51.32,25.78,51.32,57.48,51.32M195.12,82.28c-45.51,0-82.55,32.99-82.55,73.55s37.03,73.55,82.55,73.55,82.55-32.99,82.55-73.55-37.03-73.55-82.55-73.55h0ZM195.12,206.14c-31.14,0-56.48-22.57-56.48-50.32s25.34-50.32,56.48-50.32,56.48,22.57,56.48,50.32-25.34,50.32-56.48,50.32h0Z"/>
    </g>
    <g>
      <path class="cls-2" d="M84.2,401.87c-3.6,0-6.47-.8-8.6-2.4-2.13-1.6-3.6-3.78-4.4-6.55-.8-2.77-1.07-5.92-.8-9.45.07-.67.3-1,.7-1h5c.53,0,.77.33.7,1-.47,4.07-.02,7.1,1.35,9.1,1.37,2,3.48,3,6.35,3,2.6,0,4.55-.78,5.85-2.35,1.3-1.57,1.95-4.02,1.95-7.35,0-2.93-.4-5.35-1.2-7.25-.8-1.9-2.2-3.58-4.2-5.05l-8.1-6.4c-2.73-2.13-4.75-4.55-6.05-7.25-1.3-2.7-1.95-5.95-1.95-9.75.07-4.73,1.28-8.42,3.65-11.05,2.37-2.63,5.65-3.95,9.85-3.95,4.93,0,8.55,1.6,10.85,4.8,2.3,3.2,3.18,7.57,2.65,13.1,0,.73-.23,1.1-.7,1.1h-5.1c-.47,0-.67-.37-.6-1.1.4-3.73-.03-6.6-1.3-8.6-1.27-2-3.17-3-5.7-3-2.13,0-3.83.7-5.1,2.1-1.27,1.4-1.93,3.53-2,6.4,0,2.67.47,4.93,1.4,6.8.93,1.87,2.37,3.57,4.3,5.1l7.8,6.1c1.93,1.47,3.48,3.02,4.65,4.65,1.17,1.63,2.02,3.5,2.55,5.6.53,2.1.8,4.55.8,7.35,0,5.07-1.18,9.05-3.55,11.95-2.37,2.9-6.05,4.35-11.05,4.35Z"/>
      <path class="cls-2" d="M117.9,401.87c-3.4,0-5.83-1.03-7.3-3.1-1.47-2.07-2.2-5.53-2.2-10.4v-29.5h-4.3c-.53,0-.8-.27-.8-.8v-4.5c0-.6.27-.9.8-.9h4.5l.8-12.2c.07-.53.33-.8.8-.8h4.1c.4,0,.6.27.6.8v12.2h9c.53,0,.8.3.8.9v4.5c0,.53-.27.8-.8.8h-9v29.3c0,2.73.33,4.67,1,5.8.67,1.13,1.8,1.7,3.4,1.7.87,0,1.7-.1,2.5-.3.8-.2,1.53-.43,2.2-.7.53-.2.8-.03.8.5v4.6c0,.6-.23.97-.7,1.1-.87.27-1.83.5-2.9.7-1.07.2-2.17.3-3.3.3Z"/>
      <path class="cls-2" d="M137.9,401.87c-2.6,0-4.62-1.13-6.05-3.4-1.43-2.27-2.15-5.43-2.15-9.5,0-4.53,1-8.18,3-10.95,2-2.77,5.27-4.38,9.8-4.85l5.2-.6v5.3l-4.5.6c-2.33.27-4.08,1.23-5.25,2.9-1.17,1.67-1.75,4.04-1.75,7.1,0,2.2.33,3.93,1,5.2.67,1.27,1.57,1.9,2.7,1.9s2.28-.45,3.45-1.35c1.17-.9,2.68-2.58,4.55-5.05l.3,5.8c-2,2.47-3.73,4.23-5.2,5.3-1.47,1.07-3.17,1.6-5.1,1.6ZM148.6,401.27c-.4,0-.63-.3-.7-.9-.13-1.2-.27-2.71-.4-4.55-.13-1.83-.2-3.38-.2-4.65l-.4-.5v-25.2c0-2.73-.32-4.62-.95-5.65-.63-1.03-1.92-1.55-3.85-1.55s-3.17.52-3.9,1.55c-.73,1.03-1,2.72-.8,5.05,0,.6-.27.9-.8.9h-4.4c-.67,0-1.03-.4-1.1-1.2-.33-3.93.45-7,2.35-9.2,1.9-2.2,4.82-3.3,8.75-3.3s6.95.97,8.65,2.9c1.7,1.93,2.55,5.37,2.55,10.3v24c0,2.67.03,4.93.1,6.8.07,1.87.13,3.27.2,4.2.07.67-.1,1-.5,1h-4.6Z"/>
      <path class="cls-2" d="M163.3,401.27c-.47,0-.7-.3-.7-.9v-35.7c0-2.8-.02-5.08-.05-6.85-.03-1.77-.12-3.12-.25-4.05-.07-.73.13-1.1.6-1.1h4.6c.33,0,.53.3.6.9.13.87.22,1.7.25,2.5.03.8.08,1.63.15,2.5,1.73-2.07,3.45-3.67,5.15-4.8,1.7-1.13,3.58-1.7,5.65-1.7,1.8,0,3.33.53,4.6,1.6,1.27,1.07,2.13,2.67,2.6,4.8,1.67-2,3.35-3.57,5.05-4.7,1.7-1.13,3.58-1.7,5.65-1.7,2.4,0,4.28.93,5.65,2.8,1.37,1.87,2.05,4.57,2.05,8.1v37.4c0,.6-.23.9-.7.9h-5.1c-.47,0-.7-.3-.7-.9v-36.5c0-1.93-.3-3.35-.9-4.25-.6-.9-1.53-1.35-2.8-1.35-1.2,0-2.43.48-3.7,1.45-1.27.97-2.6,2.35-4,4.15v36.5c0,.6-.23.9-.7.9h-5.1c-.47,0-.7-.3-.7-.9v-36.5c0-1.93-.3-3.35-.9-4.25-.6-.9-1.53-1.35-2.8-1.35-1.2,0-2.43.48-3.7,1.45-1.27.97-2.6,2.35-4,4.15v36.5c0,.6-.23.9-.7.9h-5.1Z"/>
      <path class="cls-2" d="M214.8,419.77c-.47,0-.7-.3-.7-.9v-55c0-2.4-.02-4.42-.05-6.05-.03-1.63-.12-3.02-.25-4.15-.07-.67.13-1,.6-1h4.3c.53,0,.83.3.9.9.13.67.23,1.62.3,2.85.07,1.23.13,2.48.2,3.75l.5,2.4v56.3c0,.6-.23.9-.7.9h-5.1ZM229.1,401.87c-1.67,0-3.33-.27-5-.8-1.67-.53-3.13-1.17-4.4-1.9l-.1-6.1c1.13.6,2.35,1.17,3.65,1.7,1.3.53,2.68.8,4.15.8,1.73,0,3.03-.78,3.9-2.35.87-1.57,1.3-4.12,1.3-7.65v-20.9c0-2.33-.32-3.98-.95-4.95-.63-.97-1.62-1.45-2.95-1.45-1.6,0-3.18.67-4.75,2-1.57,1.33-3.12,3.07-4.65,5.2l-.5-5.8c1.87-2.4,3.75-4.27,5.65-5.6,1.9-1.33,3.98-2,6.25-2,2.8,0,4.9.95,6.3,2.85,1.4,1.9,2.1,4.95,2.1,9.15v21.7c0,5.4-.85,9.43-2.55,12.1-1.7,2.67-4.18,4-7.45,4Z"/>
      <path class="cls-2" d="M257.5,401.27c-.33,0-.57-.2-.7-.6l-12.6-63.9c-.07-.67.13-1,.6-1h5.4c.47,0,.73.2.8.6l8,43.1c.4,2.33.78,4.68,1.15,7.05.37,2.37.72,4.72,1.05,7.05h.2c.33-2.33.7-4.68,1.1-7.05.4-2.37.8-4.72,1.2-7.05l8-43c.07-.47.3-.7.7-.7h5.5c.47,0,.67.33.6,1l-12.6,63.8c-.13.47-.37.7-.7.7h-7.7Z"/>
      <path class="cls-2" d="M288.5,401.87c-2.6,0-4.62-1.13-6.05-3.4-1.43-2.27-2.15-5.43-2.15-9.5,0-4.53,1-8.18,3-10.95,2-2.77,5.27-4.38,9.8-4.85l5.2-.6v5.3l-4.5.6c-2.33.27-4.08,1.23-5.25,2.9-1.17,1.67-1.75,4.04-1.75,7.1,0,2.2.33,3.93,1,5.2.67,1.27,1.57,1.9,2.7,1.9s2.28-.45,3.45-1.35c1.17-.9,2.68-2.58,4.55-5.05l.3,5.8c-2,2.47-3.73,4.23-5.2,5.3-1.47,1.07-3.17,1.6-5.1,1.6ZM299.2,401.27c-.4,0-.63-.3-.7-.9-.13-1.2-.27-2.71-.4-4.55-.13-1.83-.2-3.38-.2-4.65l-.4-.5v-25.2c0-2.73-.32-4.62-.95-5.65-.63-1.03-1.92-1.55-3.85-1.55s-3.17.52-3.9,1.55c-.73,1.03-1,2.72-.8,5.05,0,.6-.27.9-.8.9h-4.4c-.67,0-1.03-.4-1.1-1.2-.33-3.93.45-7,2.35-9.2,1.9-2.2,4.82-3.3,8.75-3.3s6.95.97,8.65,2.9c1.7,1.93,2.55,5.37,2.55,10.3v24c0,2.67.03,4.93.1,6.8.07,1.87.13,3.27.2,4.2.07.67-.1,1-.5,1h-4.6Z"/>
      <path class="cls-2" d="M321.5,401.87c-3.07,0-5.22-.98-6.45-2.95-1.23-1.97-1.85-5.05-1.85-9.25v-36.1c0-.6.23-.9.7-.9h5.1c.46,0,.7.3.7.9v36c0,2.4.28,4,.85,4.8.57.8,1.48,1.2,2.75,1.2,1.73,0,3.38-.67,4.95-2,1.56-1.33,3.08-3.13,4.55-5.4l.6,5.6c-1.73,2.33-3.6,4.27-5.6,5.8-2,1.53-4.1,2.3-6.3,2.3ZM333.2,401.27c-.4,0-.67-.3-.8-.9-.13-1.4-.25-3.05-.35-4.95-.1-1.9-.15-3.32-.15-4.25l-.5-.6v-37c0-.6.27-.9.8-.9h5c.46,0,.7.3.7.9v35.7c0,2.8.03,5.08.1,6.85.06,1.77.13,3.12.2,4.05.07.73-.13,1.1-.6,1.1h-4.4Z"/>
      <path class="cls-2" d="M347.8,401.27c-.47,0-.7-.3-.7-.9v-66.5c0-.6.23-.9.7-.9h5.1c.46,0,.7.3.7.9v66.5c0,.6-.23.9-.7.9h-5.1Z"/>
      <path class="cls-2" d="M374.5,401.87c-3.4,0-5.83-1.03-7.3-3.1-1.47-2.07-2.2-5.53-2.2-10.4v-29.5h-4.3c-.53,0-.8-.27-.8-.8v-4.5c0-.6.27-.9.8-.9h4.5l.8-12.2c.07-.53.33-.8.8-.8h4.1c.4,0,.6.27.6.8v12.2h9c.53,0,.8.3.8.9v4.5c0,.53-.27.8-.8.8h-9v29.3c0,2.73.33,4.67,1,5.8.67,1.13,1.8,1.7,3.4,1.7.87,0,1.7-.1,2.5-.3.8-.2,1.53-.43,2.2-.7.53-.2.8-.03.8.5v4.6c0,.6-.23.97-.7,1.1-.87.27-1.83.5-2.9.7s-2.17.3-3.3.3Z"/>
    </g>
  </g>
</svg>